# xmcd
#
# Track frame offsets:
#	150
#	18522
#	34385
#	55082
#	68800
#	86300
#	100712
#	121187
#
# Disc length: 1803 seconds
#
# Revision: 0
# Processed by: cddbd v1.5.1PL0 Copyright (c) Steve Scherf et al.
# Submitted via: audiograbber 1.82.02
#
DISCID=5c070908
DTITLE=Black and White - 45 r.p.m.
DYEAR=2001
DGENRE=R&B
TTITLE0=Mood To Get Rude
TTITLE1=Catrina
TTITLE2=Can't Win For Losing
TTITLE3=Rhumba King
TTITLE4=45 R.P.M.
TTITLE5=The Illicit Tale Of Jimmy D.
TTITLE6=I Don't Feel So Good
TTITLE7=8-Track Comeback
EXTD=
EXTT0=
EXTT1=
EXTT2=
EXTT3=
EXTT4=
EXTT5=
EXTT6=
EXTT7=
PLAYORDER=
